<?xml version="1.0" standalone="no"?>
<!DOCTYPE svg PUBLIC "-//W3C//DTD SVG 20010904//EN"
 "http://www.w3.org/TR/2001/REC-SVG-20010904/DTD/svg10.dtd">
<svg version="1.0" xmlns="http://www.w3.org/2000/svg"
 width="1198.000000pt" height="1198.000000pt" viewBox="0 0 1198.000000 1198.000000"
 preserveAspectRatio="xMidYMid meet">
<metadata>
Created by potrace 1.14, written by Peter Selinger 2001-2017
</metadata>
<g transform="translate(0.000000,1198.000000) scale(0.100000,-0.100000)"
fill="#000000" stroke="none">
<path d="M1460 7779 c-90 -9 -170 -34 -269 -83 -67 -32 -103 -59 -171 -126
-131 -130 -153 -174 -290 -589 -65 -196 -226 -684 -358 -1086 -133 -401 -269
-813 -303 -915 -54 -163 -62 -196 -64 -273 -5 -151 38 -259 143 -366 76 -77
159 -122 262 -143 51 -10 271 -13 1020 -11 938 1 956 1 1035 22 117 31 241 96
310 162 l31 29 64 -63 c71 -68 162 -118 249 -136 37 -8 346 -11 1021 -11 l967
1 86 23 c91 25 226 92 273 135 64 57 57 58 123 -8 58 -58 162 -118 236 -138
48 -12 1897 -15 1992 -3 151 20 308 90 402 182 l24 23 63 -63 c73 -73 173
-125 274 -142 45 -7 370 -9 1025 -7 1080 3 1002 -2 1170 82 101 51 189 121
252 202 96 124 62 29 637 1778 120 363 221 669 226 680 5 11 26 74 47 140 33
105 38 132 37 215 0 52 -6 113 -13 135 -53 168 -175 291 -340 341 l-75 24
-961 0 c-1031 -1 -1024 0 -1164 -52 -60 -22 -179 -95 -221 -134 l-25 -23 -49
49 c-60 61 -125 104 -203 133 l-58 22 -985 2 c-1068 3 -1034 4 -1181 -52 -55
-21 -191 -102 -209 -124 -27 -33 -36 -31 -96 28 -65 63 -159 115 -245 135 -42
9 -276 12 -1024 11 -1084 -2 -1029 2 -1189 -73 -45 -21 -107 -59 -138 -85 -32
-26 -59 -47 -61 -47 -1 0 -30 26 -64 58 -68 65 -130 102 -219 128 -54 16 -132
18 -994 18 -514 1 -964 -2 -1000 -5z"/>
</g>
</svg>
